<?xml version="1.0" encoding="UTF-8" standalone="no"?>
<!DOCTYPE svg PUBLIC "-//W3C//DTD SVG 1.1//EN"
 "http://www.w3.org/Graphics/SVG/1.1/DTD/svg11.dtd">
<!-- Generated by graphviz version 2.43.0 (0)
 -->
<!-- Title: %3 Pages: 1 -->
<svg width="1442pt" height="332pt"
 viewBox="0.00 0.00 1442.13 332.00" xmlns="http://www.w3.org/2000/svg" xmlns:xlink="http://www.w3.org/1999/xlink">
<g id="graph0" class="graph" transform="scale(1 1) rotate(0) translate(4 328)">
<title>%3</title>
<polygon fill="white" stroke="transparent" points="-4,4 -4,-328 1438.13,-328 1438.13,4 -4,4"/>
<!-- [root] local_file.myfile (expand) -->
<g id="node1" class="node">
<title>[root] local_file.myfile (expand)</title>
<polygon fill="none" stroke="black" points="729.93,-180 603.93,-180 603.93,-144 729.93,-144 729.93,-180"/>
<text text-anchor="middle" x="666.93" y="-158.3" font-family="Times,serif" font-size="14.00">local_file.myfile</text>
</g>
<!-- [root] provider[&quot;registry.terraform.io/hashicorp/local&quot;] -->
<g id="node2" class="node">
<title>[root] provider[&quot;registry.terraform.io/hashicorp/local&quot;]</title>
<polygon fill="none" stroke="black" points="640.93,-108 310.98,-90 640.93,-72 970.89,-90 640.93,-108"/>
<text text-anchor="middle" x="640.93" y="-86.3" font-family="Times,serif" font-size="14.00">provider[&quot;registry.terraform.io/hashicorp/local&quot;]</text>
</g>
<!-- [root] local_file.myfile (expand)&#45;&gt;[root] provider[&quot;registry.terraform.io/hashicorp/local&quot;] -->
<g id="edge1" class="edge">
<title>[root] local_file.myfile (expand)&#45;&gt;[root] provider[&quot;registry.terraform.io/hashicorp/local&quot;]</title>
<path fill="none" stroke="black" d="M660.5,-143.7C657.58,-135.81 654.04,-126.3 650.79,-117.55"/>
<polygon fill="black" stroke="black" points="654.05,-116.26 647.28,-108.1 647.48,-118.7 654.05,-116.26"/>
</g>
<!-- [root] random_string.mystring (expand) -->
<g id="node4" class="node">
<title>[root] random_string.mystring (expand)</title>
<polygon fill="none" stroke="black" points="1178.93,-108 988.93,-108 988.93,-72 1178.93,-72 1178.93,-108"/>
<text text-anchor="middle" x="1083.93" y="-86.3" font-family="Times,serif" font-size="14.00">random_string.mystring</text>
</g>
<!-- [root] local_file.myfile (expand)&#45;&gt;[root] random_string.mystring (expand) -->
<g id="edge2" class="edge">
<title>[root] local_file.myfile (expand)&#45;&gt;[root] random_string.mystring (expand)</title>
<path fill="none" stroke="black" d="M730.03,-150.12C741.96,-148.07 754.32,-145.96 765.93,-144 836.76,-132.02 916.51,-118.73 978.42,-108.45"/>
<polygon fill="black" stroke="black" points="979.3,-111.85 988.59,-106.76 978.15,-104.95 979.3,-111.85"/>
</g>
<!-- [root] provider[&quot;registry.terraform.io/hashicorp/random&quot;] -->
<g id="node3" class="node">
<title>[root] provider[&quot;registry.terraform.io/hashicorp/random&quot;]</title>
<polygon fill="none" stroke="black" points="1083.93,-36 733.53,-18 1083.93,0 1434.33,-18 1083.93,-36"/>
<text text-anchor="middle" x="1083.93" y="-14.3" font-family="Times,serif" font-size="14.00">provider[&quot;registry.terraform.io/hashicorp/random&quot;]</text>
</g>
<!-- [root] random_string.mystring (expand)&#45;&gt;[root] provider[&quot;registry.terraform.io/hashicorp/random&quot;] -->
<g id="edge6" class="edge">
<title>[root] random_string.mystring (expand)&#45;&gt;[root] provider[&quot;registry.terraform.io/hashicorp/random&quot;]</title>
<path fill="none" stroke="black" d="M1083.93,-71.7C1083.93,-63.98 1083.93,-54.71 1083.93,-46.11"/>
<polygon fill="black" stroke="black" points="1087.43,-46.1 1083.93,-36.1 1080.43,-46.1 1087.43,-46.1"/>
</g>
<!-- [root] meta.count&#45;boundary (EachMode fixup) -->
<g id="node5" class="node">
<title>[root] meta.count&#45;boundary (EachMode fixup)</title>
<ellipse fill="none" stroke="black" cx="222.93" cy="-234" rx="222.86" ry="18"/>
<text text-anchor="middle" x="222.93" y="-230.3" font-family="Times,serif" font-size="14.00">[root] meta.count&#45;boundary (EachMode fixup)</text>
</g>
<!-- [root] meta.count&#45;boundary (EachMode fixup)&#45;&gt;[root] local_file.myfile (expand) -->
<g id="edge3" class="edge">
<title>[root] meta.count&#45;boundary (EachMode fixup)&#45;&gt;[root] local_file.myfile (expand)</title>
<path fill="none" stroke="black" d="M319.55,-217.77C401.9,-204.78 518.5,-186.4 593.43,-174.59"/>
<polygon fill="black" stroke="black" points="594.38,-177.98 603.71,-172.97 593.29,-171.07 594.38,-177.98"/>
</g>
<!-- [root] provider[&quot;registry.terraform.io/hashicorp/local&quot;] (close) -->
<g id="node6" class="node">
<title>[root] provider[&quot;registry.terraform.io/hashicorp/local&quot;] (close)</title>
<ellipse fill="none" stroke="black" cx="759.93" cy="-234" rx="295.95" ry="18"/>
<text text-anchor="middle" x="759.93" y="-230.3" font-family="Times,serif" font-size="14.00">[root] provider[&quot;registry.terraform.io/hashicorp/local&quot;] (close)</text>
</g>
<!-- [root] provider[&quot;registry.terraform.io/hashicorp/local&quot;] (close)&#45;&gt;[root] local_file.myfile (expand) -->
<g id="edge4" class="edge">
<title>[root] provider[&quot;registry.terraform.io/hashicorp/local&quot;] (close)&#45;&gt;[root] local_file.myfile (expand)</title>
<path fill="none" stroke="black" d="M736.94,-215.7C725.12,-206.8 710.54,-195.82 697.75,-186.2"/>
<polygon fill="black" stroke="black" points="699.75,-183.32 689.65,-180.1 695.54,-188.91 699.75,-183.32"/>
</g>
<!-- [root] provider[&quot;registry.terraform.io/hashicorp/random&quot;] (close) -->
<g id="node7" class="node">
<title>[root] provider[&quot;registry.terraform.io/hashicorp/random&quot;] (close)</title>
<ellipse fill="none" stroke="black" cx="1083.93" cy="-162" rx="309.25" ry="18"/>
<text text-anchor="middle" x="1083.93" y="-158.3" font-family="Times,serif" font-size="14.00">[root] provider[&quot;registry.terraform.io/hashicorp/random&quot;] (close)</text>
</g>
<!-- [root] provider[&quot;registry.terraform.io/hashicorp/random&quot;] (close)&#45;&gt;[root] random_string.mystring (expand) -->
<g id="edge5" class="edge">
<title>[root] provider[&quot;registry.terraform.io/hashicorp/random&quot;] (close)&#45;&gt;[root] random_string.mystring (expand)</title>
<path fill="none" stroke="black" d="M1083.93,-143.7C1083.93,-135.98 1083.93,-126.71 1083.93,-118.11"/>
<polygon fill="black" stroke="black" points="1087.43,-118.1 1083.93,-108.1 1080.43,-118.1 1087.43,-118.1"/>
</g>
<!-- [root] root -->
<g id="node8" class="node">
<title>[root] root</title>
<ellipse fill="none" stroke="black" cx="759.93" cy="-306" rx="58.49" ry="18"/>
<text text-anchor="middle" x="759.93" y="-302.3" font-family="Times,serif" font-size="14.00">[root] root</text>
</g>
<!-- [root] root&#45;&gt;[root] meta.count&#45;boundary (EachMode fixup) -->
<g id="edge7" class="edge">
<title>[root] root&#45;&gt;[root] meta.count&#45;boundary (EachMode fixup)</title>
<path fill="none" stroke="black" d="M706.97,-298.1C623.43,-287.21 458.86,-265.75 344.96,-250.91"/>
<polygon fill="black" stroke="black" points="345.16,-247.4 334.79,-249.58 344.26,-254.35 345.16,-247.4"/>
</g>
<!-- [root] root&#45;&gt;[root] provider[&quot;registry.terraform.io/hashicorp/local&quot;] (close) -->
<g id="edge8" class="edge">
<title>[root] root&#45;&gt;[root] provider[&quot;registry.terraform.io/hashicorp/local&quot;] (close)</title>
<path fill="none" stroke="black" d="M759.93,-287.7C759.93,-279.98 759.93,-270.71 759.93,-262.11"/>
<polygon fill="black" stroke="black" points="763.43,-262.1 759.93,-252.1 756.43,-262.1 763.43,-262.1"/>
</g>
<!-- [root] root&#45;&gt;[root] provider[&quot;registry.terraform.io/hashicorp/random&quot;] (close) -->
<g id="edge9" class="edge">
<title>[root] root&#45;&gt;[root] provider[&quot;registry.terraform.io/hashicorp/random&quot;] (close)</title>
<path fill="none" stroke="black" d="M817.36,-302.51C895.72,-297.91 1030.37,-285.26 1064.93,-252 1081.33,-236.21 1085.29,-210 1085.62,-190.1"/>
<polygon fill="black" stroke="black" points="1089.12,-190.03 1085.49,-180.08 1082.12,-190.12 1089.12,-190.03"/>
</g>
</g>
</svg>
